
<svg xmlns="http://www.w3.org/2000/svg" width="256" height="64" viewBox="0 0 256 64">
  <defs>
    <linearGradient id="g" x1="0" y1="1" x2="1" y2="0">
      <stop offset="0%"  stop-color="#9fb4c9"/>
      <stop offset="100%" stop-color="#6e93b8"/>
    </linearGradient>
  </defs>
  <!-- капсула -->
  <rect x="4" y="4" width="56" height="56" rx="16" fill="url(#g)"/>
  <!-- CT -->
  <g fill="#ffffff">
    <path d="M28 22c-4.97 0-9 4.03-9 9s4.03 9 9 9c2.64 0 4.77-.97 6.36-2.9l3.33 2.7C35.72 42.73 32.31 44 28.01 44c-7.18 0-13.01-5.83-13.01-13s5.83-13 13.01-13c4.36 0 7.78 1.31 9.72 3.93l-3.34 2.72C32.75 23.02 30.62 22 28 22z"/>
    <rect x="36.5" y="20" width="4.5" height="24" rx="2"/>
  </g>
  <!-- текст CitiTool -->
  <g fill="#2f3a47" font-family="-apple-system, BlinkMacSystemFont, Segoe UI, Inter, Roboto, system-ui, sans-serif" font-weight="700">
    <text x="72" y="41" font-size="24">Citi</text>
    <text x="118" y="41" font-size="24" font-weight="700" fill="#5f87b6">Tool</text>
  </g>
</svg>
